<?xml version="1.0" standalone="no"?>
<!DOCTYPE svg PUBLIC "-//W3C//DTD SVG 20010904//EN"
 "http://www.w3.org/TR/2001/REC-SVG-20010904/DTD/svg10.dtd">
<svg version="1.0" xmlns="http://www.w3.org/2000/svg"
 width="800.000000pt" height="800.000000pt" viewBox="0 0 800.000000 800.000000"
 preserveAspectRatio="xMidYMid meet">

<g transform="translate(0.000000,800.000000) scale(0.100000,-0.100000)"
fill="#000000" stroke="none">
<path d="M3730 7894 c-14 -2 -65 -9 -115 -15 -286 -34 -632 -144 -915 -291
-269 -140 -488 -302 -712 -529 -208 -210 -391 -465 -521 -724 -124 -248 -215
-553 -269 -895 -20 -132 -17 -596 5 -730 82 -491 211 -824 467 -1205 187 -278
432 -523 730 -728 111 -76 138 -93 264 -163 80 -45 96 -51 96 -36 0 5 -33 26
-72 47 -209 109 -482 310 -658 485 -478 473 -760 1079 -819 1755 -42 476 53
992 262 1425 145 301 313 536 547 770 412 413 926 681 1494 780 187 32 304 42
481 42 721 1 1424 -284 1944 -787 330 -319 570 -704 712 -1138 33 -102 35
-113 13 -121 -24 -9 -707 -7 -722 3 -7 4 -33 52 -57 106 -104 229 -226 407
-431 621 -84 89 -266 227 -423 321 -442 265 -1050 344 -1575 203 -305 -82
-540 -205 -801 -421 -192 -159 -369 -377 -493 -609 -235 -441 -298 -968 -175
-1480 100 -419 359 -821 713 -1105 138 -112 352 -243 439 -270 52 -16 11 15
-84 65 -218 113 -401 253 -569 436 -282 308 -458 675 -522 1090 -20 130 -23
439 -5 559 47 320 153 603 325 865 83 126 155 212 289 343 298 292 658 475
1092 554 126 22 504 25 635 5 335 -53 654 -188 932 -394 132 -98 342 -314 438
-453 78 -110 193 -320 233 -422 l17 -43 395 0 c455 0 410 -14 370 119 -124
414 -370 819 -694 1142 -241 240 -460 398 -746 539 -279 137 -505 209 -840
267 -86 14 -610 28 -675 17z"/>
<path d="M3735 7730 c-508 -56 -961 -238 -1368 -547 -131 -100 -359 -328 -465
-465 -243 -313 -419 -690 -500 -1068 -41 -188 -55 -335 -55 -565 0 -253 20
-426 78 -649 164 -637 563 -1199 1100 -1548 126 -81 317 -188 338 -188 18 0
247 248 264 287 7 16 12 35 12 43 1 9 -43 37 -118 73 -421 205 -777 554 -992
972 -179 348 -259 699 -246 1089 6 187 22 297 68 481 185 734 776 1350 1499
1563 242 71 386 92 645 92 302 0 556 -47 820 -152 494 -195 915 -581 1159
-1061 l62 -122 224 -3 c123 -1 227 1 231 5 4 5 -9 51 -30 103 -125 315 -309
601 -550 852 -412 430 -942 703 -1543 794 -121 18 -514 27 -633 14z"/>
<path d="M2990 6039 c0 -11 30 -70 230 -454 121 -230 110 -99 110 -1364 0
-703 -4 -1119 -10 -1161 -6 -36 -26 -96 -44 -135 -35 -75 -54 -96 -656 -744
-75 -81 -273 -294 -440 -476 -167 -181 -386 -417 -485 -524 -328 -353 -329
-355 -329 -511 0 -111 12 -159 56 -224 39 -60 102 -107 195 -146 l72 -30 1680
0 1681 0 0 125 0 125 -1515 0 -1516 0 -49 25 c-166 84 -210 224 -124 399 16
32 82 114 177 217 241 262 630 682 762 824 224 240 609 658 661 716 28 32 62
80 77 107 59 109 57 56 57 1375 l0 1208 -26 77 c-14 42 -60 142 -102 222 -42
80 -101 192 -132 250 l-55 105 -137 3 c-99 2 -138 -1 -138 -9z"/>
<path d="M5275 4838 c-3 -7 -4 -177 -3 -378 l3 -365 248 -3 c217 -2 247 -4
247 -18 0 -9 -25 -55 -56 -102 -191 -295 -471 -548 -781 -705 -57 -29 -103
-56 -103 -60 0 -12 35 1 132 49 239 120 516 357 695 595 82 109 153 223 153
244 0 13 -36 15 -248 15 -180 0 -251 3 -260 12 -9 9 -12 101 -12 354 0 303 2
343 16 348 20 8 1438 8 1458 0 14 -6 16 -124 16 -1238 0 -945 -3 -1235 -12
-1244 -9 -9 -98 -12 -339 -12 -180 0 -334 3 -343 6 -14 5 -16 53 -16 428 0
233 -3 426 -7 429 -3 4 -56 -42 -117 -101 -173 -167 -383 -322 -607 -448 -91
-51 -123 -74 -101 -74 5 0 54 24 109 54 185 99 439 284 584 423 77 75 98 91
108 80 7 -10 12 -135 13 -413 l3 -399 350 -3 c193 -1 360 0 373 3 l22 5 -2
1263 -3 1262 -758 3 c-602 2 -759 0 -762 -10z"/>
<path d="M5412 4473 l3 -238 305 -5 c356 -6 327 11 248 -145 -215 -426 -591
-792 -1025 -997 -57 -27 -103 -54 -103 -61 1 -29 42 -83 149 -199 62 -68 119
-126 126 -130 26 -16 404 213 555 336 154 125 329 308 450 469 24 32 47 54 51
50 5 -5 10 -256 11 -558 l3 -550 233 -3 232 -2 0 1135 0 1135 -620 0 -620 0 2
-237z"/>
</g>
</svg>
